<svg xmlns="http://www.w3.org/2000/svg" width="345" height="708" viewBox="0 0 345 708" version="1.1"><path d="M 104 12.500 L 104 17 100 17 L 96 17 96 33 L 96 49 92 49 L 88 49 88 53 L 88 57 80 57 L 72 57 72 61 L 72 65 68 65 L 64 65 64 69 L 64 73 56 73 L 48 73 48 77 L 48 81 40 81 L 32 81 32 85 L 32 89 28 89 L 24 89 24 109 L 24 129 28 129 L 32 129 32 109 L 32 89 40 89 L 48 89 48 85 L 48 81 56 81 L 64 81 64 77 L 64 73 68 73 L 72 73 72 69 L 72 65 80 65 L 88 65 88 61 L 88 57 96 57 L 104 57 104 49 L 104 41 108 41 L 112 41 112 45 L 112 49 116 49 L 120 49 120 57 L 120 65 124 65 L 128 65 128 57 L 128 49 124 49 L 120 49 120 45 L 120 41 116 41 L 112 41 112 37 L 112 33 108 33 L 104 33 104 29 L 104 25 108 25 L 112 25 112 21 L 112 17 124 17 L 136 17 136 21 L 136 25 140 25 L 144 25 144 33 L 144 41 148 41 L 152 41 152 77 L 152 113 156 113 L 160 113 160 85 L 160 57 164 57 L 168 57 168 49 L 168 41 160 41 L 152 41 152 33 L 152 25 148 25 L 144 25 144 21 L 144 17 148 17 L 152 17 152 12.500 L 152 8 128 8 L 104 8 104 12.500 M 104 89 L 104 113 92 113 L 80 113 80 117 L 80 121 84 121 L 88 121 88 133 L 88 145 92 145 L 96 145 96 133 L 96 121 100 121 L 104 121 104 149 L 104 177 108 177 L 112 177 112 133 L 112 89 116 89 L 120 89 120 85 L 120 81 116 81 L 112 81 112 73 L 112 65 108 65 L 104 65 104 89 M 160 169.500 L 160 218 156 218 L 152 218 152 226 L 152 234 156 234 L 160 234 160 262 L 160 290 156 290 L 152 290 152 294 L 152 298 140 298 L 128 298 128 294 L 128 290 124 290 L 120 290 120 282 L 120 274 116 274 L 112 274 112 266 L 112 258 108 258 L 104 258 104 221.500 L 104 185 100 185 L 96 185 96 201.500 L 96 218 92 218 L 88 218 88 226 L 88 234 92 234 L 96 234 96 246 L 96 258 100 258 L 104 258 104 266 L 104 274 108 274 L 112 274 112 294 L 112 314 100 314 L 88 314 88 318 L 88 322 104 322 L 120 322 120 318 L 120 314 128 314 L 136 314 136 310 L 136 306 144 306 L 152 306 152 302 L 152 298 160 298 L 168 298 168 294 L 168 290 176 290 L 184 290 184 286 L 184 282 188 282 L 192 282 192 278 L 192 274 200.500 274 L 209 274 209 270 L 209 266 213 266 L 217 266 217 262 L 217 258 221 258 L 225 258 225 254 L 225 250 229 250 L 233 250 233 246 L 233 242 245 242 L 257 242 257 246 L 257 250 265 250 L 273 250 273 254 L 273 258 281 258 L 289 258 289 262 L 289 266 297 266 L 305 266 305 270 L 305 274 313 274 L 321 274 321 278 L 321 282 325 282 L 329 282 329 278 L 329 274 325 274 L 321 274 321 270 L 321 266 313 266 L 305 266 305 262 L 305 258 297 258 L 289 258 289 254 L 289 250 281 250 L 273 250 273 246 L 273 242 269 242 L 265 242 265 238 L 265 234 249 234 L 233 234 233 238 L 233 242 229 242 L 225 242 225 246 L 225 250 221 250 L 217 250 217 254 L 217 258 209 258 L 201 258 201 262 L 201 266 196.500 266 L 192 266 192 270 L 192 274 188 274 L 184 274 184 278 L 184 282 176 282 L 168 282 168 201.500 L 168 121 164 121 L 160 121 160 169.500 M 16 153 L 16 169 12 169 L 8 169 8 181 L 8 193 4 193 L 0 193 0 201 L 0 209 4 209 L 8 209 8 221.500 L 8 234 12 234 L 16 234 16 250 L 16 266 20 266 L 24 266 24 278 L 24 290 28 290 L 32 290 32 294 L 32 298 28 298 L 24 298 24 306 L 24 314 32 314 L 40 314 40 302 L 40 290 36 290 L 32 290 32 278 L 32 266 28 266 L 24 266 24 250 L 24 234 20 234 L 16 234 16 221.500 L 16 209 12 209 L 8 209 8 201 L 8 193 12 193 L 16 193 16 181 L 16 169 20 169 L 24 169 24 153 L 24 137 20 137 L 16 137 16 153 M 80 169 L 80 185 76 185 L 72 185 72 197 L 72 209 76 209 L 80 209 80 197 L 80 185 84 185 L 88 185 88 169 L 88 153 84 153 L 80 153 80 169 M 249 302 L 249 306 245 306 L 241 306 241 310 L 241 314 237 314 L 233 314 233 318 L 233 322 229 322 L 225 322 225 326 L 225 330 221 330 L 217 330 217 334 L 217 338 213 338 L 209 338 209 342 L 209 346 205 346 L 201 346 201 342 L 201 338 196.500 338 L 192 338 192 346 L 192 354 188 354 L 184 354 184 350 L 184 346 180 346 L 176 346 176 342 L 176 338 172 338 L 168 338 168 342 L 168 346 172 346 L 176 346 176 350 L 176 354 164 354 L 152 354 152 358 L 152 362 160 362 L 168 362 168 366 L 168 370 244.500 370 L 321 370 321 374 L 321 378 325 378 L 329 378 329 402.500 L 329 427 333 427 L 337 427 337 447 L 337 467 333 467 L 329 467 329 471 L 329 475 337 475 L 345 475 345 442.500 L 345 410 341 410 L 337 410 337 390 L 337 370 333 370 L 329 370 329 366 L 329 362 321 362 L 313 362 313 350 L 313 338 317 338 L 321 338 321 326 L 321 314 325 314 L 329 314 329 306 L 329 298 325 298 L 321 298 321 306 L 321 314 317 314 L 313 314 313 326 L 313 338 309 338 L 305 338 305 350 L 305 362 289 362 L 273 362 273 350 L 273 338 277 338 L 281 338 281 330 L 281 322 285 322 L 289 322 289 318 L 289 314 273 314 L 257 314 257 306 L 257 298 253 298 L 249 298 249 302 M 241 318 L 241 322 237 322 L 233 322 233 326 L 233 330 229 330 L 225 330 225 334 L 225 338 221 338 L 217 338 217 350 L 217 362 221 362 L 225 362 225 358 L 225 354 229 354 L 233 354 233 358 L 233 362 249 362 L 265 362 265 346 L 265 330 269 330 L 273 330 273 326 L 273 322 265 322 L 257 322 257 326 L 257 330 253 330 L 249 330 249 322 L 249 314 245 314 L 241 314 241 318 M 40 354 L 40 386 44 386 L 48 386 48 402.500 L 48 419 52 419 L 56 419 56 435 L 56 451 60 451 L 64 451 64 467 L 64 483 68 483 L 72 483 72 511 L 72 539 76 539 L 80 539 80 551 L 80 563 84 563 L 88 563 88 551 L 88 539 84 539 L 80 539 80 511 L 80 483 76 483 L 72 483 72 463 L 72 443 68 443 L 64 443 64 431 L 64 419 60 419 L 56 419 56 402.500 L 56 386 52 386 L 48 386 48 354 L 48 322 44 322 L 40 322 40 354 M 201 326 L 201 330 205 330 L 209 330 209 326 L 209 322 205 322 L 201 322 201 326 M 241 342 L 241 346 237 346 L 233 346 233 350 L 233 354 237 354 L 241 354 241 350 L 241 346 245 346 L 249 346 249 342 L 249 338 245 338 L 241 338 241 342 M 201 358 L 201 362 205 362 L 209 362 209 358 L 209 354 205 354 L 201 354 201 358 M 289 406 L 289 410 285 410 L 281 410 281 414.500 L 281 419 269 419 L 257 419 257 423 L 257 427 245 427 L 233 427 233 423 L 233 419 221 419 L 209 419 209 414.500 L 209 410 205 410 L 201 410 201 414.500 L 201 419 205 419 L 209 419 209 423 L 209 427 217 427 L 225 427 225 447 L 225 467 229 467 L 233 467 233 483 L 233 499 241 499 L 249 499 249 475 L 249 451 253 451 L 257 451 257 443 L 257 435 261 435 L 265 435 265 431 L 265 427 273 427 L 281 427 281 435 L 281 443 285 443 L 289 443 289 455 L 289 467 285 467 L 281 467 281 471 L 281 475 277 475 L 273 475 273 495 L 273 515 277 515 L 281 515 281 519 L 281 523 289 523 L 297 523 297 531 L 297 539 293 539 L 289 539 289 547 L 289 555 285 555 L 281 555 281 559 L 281 563 277 563 L 273 563 273 567 L 273 571 261 571 L 249 571 249 567 L 249 563 245 563 L 241 563 241 571 L 241 579 237 579 L 233 579 233 591 L 233 603 229 603 L 225 603 225 611.500 L 225 620 221 620 L 217 620 217 624 L 217 628 213 628 L 209 628 209 632 L 209 636 205 636 L 201 636 201 640 L 201 644 196.500 644 L 192 644 192 648 L 192 652 184 652 L 176 652 176 656 L 176 660 172 660 L 168 660 168 664 L 168 668 172 668 L 176 668 176 664 L 176 660 184 660 L 192 660 192 656 L 192 652 196.500 652 L 201 652 201 648 L 201 644 209 644 L 217 644 217 648 L 217 652 221 652 L 225 652 225 656 L 225 660 221 660 L 217 660 217 668 L 217 676 209 676 L 201 676 201 680 L 201 684 188.500 684 L 176 684 176 688 L 176 692 164 692 L 152 692 152 696 L 152 700 136 700 L 120 700 120 704 L 120 708 136 708 L 152 708 152 704 L 152 700 164 700 L 176 700 176 696 L 176 692 188.500 692 L 201 692 201 688 L 201 684 209 684 L 217 684 217 680 L 217 676 225 676 L 233 676 233 664 L 233 652 237 652 L 241 652 241 640 L 241 628 245 628 L 249 628 249 615.500 L 249 603 253 603 L 257 603 257 599 L 257 595 261 595 L 265 595 265 591 L 265 587 269 587 L 273 587 273 583 L 273 579 277 579 L 281 579 281 575 L 281 571 285 571 L 289 571 289 563 L 289 555 293 555 L 297 555 297 551 L 297 547 301 547 L 305 547 305 535 L 305 523 301 523 L 297 523 297 519 L 297 515 301 515 L 305 515 305 511 L 305 507 297 507 L 289 507 289 511 L 289 515 285 515 L 281 515 281 499 L 281 483 285 483 L 289 483 289 479 L 289 475 293 475 L 297 475 297 471 L 297 467 301 467 L 305 467 305 463 L 305 459 313 459 L 321 459 321 455 L 321 451 309 451 L 297 451 297 447 L 297 443 293 443 L 289 443 289 426.500 L 289 410 293 410 L 297 410 297 406 L 297 402 293 402 L 289 402 289 406 M 168 431 L 168 435 184.500 435 L 201 435 201 431 L 201 427 184.500 427 L 168 427 168 431 M 209 439 L 209 443 213 443 L 217 443 217 439 L 217 435 213 435 L 209 435 209 439 M 192 471 L 192 475 204.500 475 L 217 475 217 471 L 217 467 204.500 467 L 192 467 192 471 M 241 519 L 241 531 237 531 L 233 531 233 543 L 233 555 229 555 L 225 555 225 563 L 225 571 229 571 L 233 571 233 563 L 233 555 237 555 L 241 555 241 543 L 241 531 245 531 L 249 531 249 519 L 249 507 245 507 L 241 507 241 519 M 72 583 L 72 595 68 595 L 64 595 64 607.500 L 64 620 60 620 L 56 620 56 632 L 56 644 52 644 L 48 644 48 656 L 48 668 52 668 L 56 668 56 676 L 56 684 60 684 L 64 684 64 688 L 64 692 68 692 L 72 692 72 696 L 72 700 76 700 L 80 700 80 704 L 80 708 84 708 L 88 708 88 704 L 88 700 84 700 L 80 700 80 696 L 80 692 76 692 L 72 692 72 684 L 72 676 68 676 L 64 676 64 672 L 64 668 60 668 L 56 668 56 656 L 56 644 60 644 L 64 644 64 632 L 64 620 68 620 L 72 620 72 607.500 L 72 595 76 595 L 80 595 80 583 L 80 571 76 571 L 72 571 72 583 M 96 648 L 96 652 100 652 L 104 652 104 656 L 104 660 108 660 L 112 660 112 656 L 112 652 108 652 L 104 652 104 648 L 104 644 100 644 L 96 644 96 648 M 120 664 L 120 668 124 668 L 128 668 128 664 L 128 660 124 660 L 120 660 120 664" stroke="none" fill="#1e1918" fill-rule="evenodd"/><path d="M 112 21 L 112 25 108 25 L 104 25 104 29 L 104 33 108 33 L 112 33 112 37 L 112 41 108 41 L 104 41 104 49 L 104 57 96 57 L 88 57 88 61 L 88 65 80 65 L 72 65 72 69 L 72 73 68 73 L 64 73 64 77 L 64 81 56 81 L 48 81 48 85 L 48 89 40 89 L 32 89 32 109 L 32 129 28 129 L 24 129 24 149 L 24 169 20 169 L 16 169 16 181 L 16 193 12 193 L 8 193 8 201 L 8 209 12 209 L 16 209 16 221.500 L 16 234 20 234 L 24 234 24 250 L 24 266 28 266 L 32 266 32 278 L 32 290 36 290 L 40 290 40 306 L 40 322 44 322 L 48 322 48 354 L 48 386 52 386 L 56 386 56 402.500 L 56 419 60 419 L 64 419 64 431 L 64 443 68 443 L 72 443 72 463 L 72 483 76 483 L 80 483 80 511 L 80 539 84 539 L 88 539 88 551 L 88 563 84 563 L 80 563 80 579 L 80 595 76 595 L 72 595 72 607.500 L 72 620 68 620 L 64 620 64 632 L 64 644 60 644 L 56 644 56 656 L 56 668 60 668 L 64 668 64 672 L 64 676 68 676 L 72 676 72 684 L 72 692 76 692 L 80 692 80 696 L 80 700 84 700 L 88 700 88 704 L 88 708 104 708 L 120 708 120 704 L 120 700 136 700 L 152 700 152 696 L 152 692 164 692 L 176 692 176 688 L 176 684 188.500 684 L 201 684 201 680 L 201 676 209 676 L 217 676 217 668 L 217 660 221 660 L 225 660 225 656 L 225 652 221 652 L 217 652 217 648 L 217 644 209 644 L 201 644 201 640 L 201 636 205 636 L 209 636 209 632 L 209 628 213 628 L 217 628 217 624 L 217 620 221 620 L 225 620 225 611.500 L 225 603 229 603 L 233 603 233 591 L 233 579 237 579 L 241 579 241 571 L 241 563 245 563 L 249 563 249 567 L 249 571 261 571 L 273 571 273 567 L 273 563 277 563 L 281 563 281 559 L 281 555 285 555 L 289 555 289 547 L 289 539 293 539 L 297 539 297 531 L 297 523 301 523 L 305 523 305 519 L 305 515 301 515 L 297 515 297 519 L 297 523 289 523 L 281 523 281 519 L 281 515 285 515 L 289 515 289 511 L 289 507 293 507 L 297 507 297 503 L 297 499 301 499 L 305 499 305 495 L 305 491 309 491 L 313 491 313 487 L 313 483 317 483 L 321 483 321 479 L 321 475 325 475 L 329 475 329 471 L 329 467 333 467 L 337 467 337 447 L 337 427 333 427 L 329 427 329 402.500 L 329 378 325 378 L 321 378 321 374 L 321 370 244.500 370 L 168 370 168 366 L 168 362 160 362 L 152 362 152 358 L 152 354 164 354 L 176 354 176 350 L 176 346 180 346 L 184 346 184 350 L 184 354 188 354 L 192 354 192 346 L 192 338 196.500 338 L 201 338 201 342 L 201 346 205 346 L 209 346 209 342 L 209 338 213 338 L 217 338 217 334 L 217 330 221 330 L 225 330 225 326 L 225 322 229 322 L 233 322 233 318 L 233 314 237 314 L 241 314 241 310 L 241 306 245 306 L 249 306 249 302 L 249 298 253 298 L 257 298 257 306 L 257 314 273 314 L 289 314 289 318 L 289 322 285 322 L 281 322 281 330 L 281 338 277 338 L 273 338 273 350 L 273 362 289 362 L 305 362 305 350 L 305 338 309 338 L 313 338 313 326 L 313 314 317 314 L 321 314 321 318 L 321 322 325 322 L 329 322 329 318 L 329 314 325 314 L 321 314 321 306 L 321 298 325 298 L 329 298 329 290 L 329 282 325 282 L 321 282 321 278 L 321 274 313 274 L 305 274 305 270 L 305 266 297 266 L 289 266 289 262 L 289 258 281 258 L 273 258 273 254 L 273 250 265 250 L 257 250 257 246 L 257 242 245 242 L 233 242 233 246 L 233 250 229 250 L 225 250 225 254 L 225 258 221 258 L 217 258 217 262 L 217 266 213 266 L 209 266 209 270 L 209 274 200.500 274 L 192 274 192 278 L 192 282 188 282 L 184 282 184 286 L 184 290 176 290 L 168 290 168 294 L 168 298 160 298 L 152 298 152 294 L 152 290 156 290 L 160 290 160 262 L 160 234 156 234 L 152 234 152 226 L 152 218 156 218 L 160 218 160 165.500 L 160 113 156 113 L 152 113 152 77 L 152 41 156 41 L 160 41 160 33 L 160 25 156 25 L 152 25 152 21 L 152 17 148 17 L 144 17 144 21 L 144 25 140 25 L 136 25 136 21 L 136 17 124 17 L 112 17 112 21 M 144 33 L 144 41 148 41 L 152 41 152 33 L 152 25 148 25 L 144 25 144 33 M 112 45 L 112 49 116 49 L 120 49 120 57 L 120 65 124 65 L 128 65 128 57 L 128 49 124 49 L 120 49 120 45 L 120 41 116 41 L 112 41 112 45 M 104 89 L 104 113 92 113 L 80 113 80 117 L 80 121 84 121 L 88 121 88 137 L 88 153 84 153 L 80 153 80 169 L 80 185 76 185 L 72 185 72 197 L 72 209 76 209 L 80 209 80 213.500 L 80 218 84 218 L 88 218 88 226 L 88 234 92 234 L 96 234 96 246 L 96 258 100 258 L 104 258 104 266 L 104 274 108 274 L 112 274 112 294 L 112 314 100 314 L 88 314 88 318 L 88 322 104 322 L 120 322 120 318 L 120 314 128 314 L 136 314 136 310 L 136 306 144 306 L 152 306 152 302 L 152 298 140 298 L 128 298 128 294 L 128 290 124 290 L 120 290 120 282 L 120 274 116 274 L 112 274 112 266 L 112 258 108 258 L 104 258 104 217.500 L 104 177 108 177 L 112 177 112 133 L 112 89 116 89 L 120 89 120 85 L 120 81 116 81 L 112 81 112 73 L 112 65 108 65 L 104 65 104 89 M 201 326 L 201 330 205 330 L 209 330 209 326 L 209 322 205 322 L 201 322 201 326 M 257 326 L 257 330 253 330 L 249 330 249 338 L 249 346 245 346 L 241 346 241 350 L 241 354 237 354 L 233 354 233 358 L 233 362 249 362 L 265 362 265 346 L 265 330 269 330 L 273 330 273 326 L 273 322 265 322 L 257 322 257 326 M 168 342 L 168 346 172 346 L 176 346 176 342 L 176 338 172 338 L 168 338 168 342 M 201 358 L 201 362 205 362 L 209 362 209 358 L 209 354 205 354 L 201 354 201 358 M 289 406 L 289 410 285 410 L 281 410 281 414.500 L 281 419 269 419 L 257 419 257 423 L 257 427 245 427 L 233 427 233 423 L 233 419 221 419 L 209 419 209 414.500 L 209 410 205 410 L 201 410 201 414.500 L 201 419 205 419 L 209 419 209 423 L 209 427 217 427 L 225 427 225 447 L 225 467 229 467 L 233 467 233 483 L 233 499 241 499 L 249 499 249 475 L 249 451 253 451 L 257 451 257 443 L 257 435 261 435 L 265 435 265 431 L 265 427 273 427 L 281 427 281 435 L 281 443 285 443 L 289 443 289 455 L 289 467 285 467 L 281 467 281 471 L 281 475 277 475 L 273 475 273 495 L 273 515 277 515 L 281 515 281 499 L 281 483 285 483 L 289 483 289 479 L 289 475 293 475 L 297 475 297 471 L 297 467 301 467 L 305 467 305 463 L 305 459 313 459 L 321 459 321 455 L 321 451 309 451 L 297 451 297 447 L 297 443 293 443 L 289 443 289 426.500 L 289 410 293 410 L 297 410 297 406 L 297 402 293 402 L 289 402 289 406 M 168 431 L 168 435 184.500 435 L 201 435 201 431 L 201 427 184.500 427 L 168 427 168 431 M 209 439 L 209 443 213 443 L 217 443 217 439 L 217 435 213 435 L 209 435 209 439 M 192 471 L 192 475 204.500 475 L 217 475 217 471 L 217 467 204.500 467 L 192 467 192 471 M 241 519 L 241 531 237 531 L 233 531 233 543 L 233 555 229 555 L 225 555 225 563 L 225 571 229 571 L 233 571 233 563 L 233 555 237 555 L 241 555 241 543 L 241 531 245 531 L 249 531 249 519 L 249 507 245 507 L 241 507 241 519 M 96 648 L 96 652 100 652 L 104 652 104 656 L 104 660 108 660 L 112 660 112 656 L 112 652 108 652 L 104 652 104 648 L 104 644 100 644 L 96 644 96 648 M 192 648 L 192 652 184 652 L 176 652 176 656 L 176 660 172 660 L 168 660 168 664 L 168 668 172 668 L 176 668 176 664 L 176 660 184 660 L 192 660 192 656 L 192 652 196.500 652 L 201 652 201 648 L 201 644 196.500 644 L 192 644 192 648 M 120 664 L 120 668 124 668 L 128 668 128 664 L 128 660 124 660 L 120 660 120 664" stroke="none" fill="#ebcdbc" fill-rule="evenodd"/></svg>