<?xml version="1.0" standalone="no"?>
<!DOCTYPE svg PUBLIC "-//W3C//DTD SVG 20010904//EN"
 "http://www.w3.org/TR/2001/REC-SVG-20010904/DTD/svg10.dtd">
<svg version="1.0" xmlns="http://www.w3.org/2000/svg"
 width="708.000000pt" height="708.000000pt" viewBox="0 0 708.000000 708.000000"
 preserveAspectRatio="xMidYMid meet">
<metadata>
Created by potrace 1.14, written by Peter Selinger 2001-2017
</metadata>
<g transform="translate(0.000000,708.000000) scale(0.100000,-0.100000)"
fill="#000000" stroke="none">
<path d="M2860 6955 l0 -45 -40 0 -40 0 0 -160 0 -160 -40 0 -40 0 0 -40 0
-40 -80 0 -80 0 0 -40 0 -40 -40 0 -40 0 0 -40 0 -40 -80 0 -80 0 0 -40 0 -40
-80 0 -80 0 0 -40 0 -40 -40 0 -40 0 0 -240 0 -240 -40 0 -40 0 0 -160 0 -160
-40 0 -40 0 0 -120 0 -120 -40 0 -40 0 0 -80 0 -80 40 0 40 0 0 -125 0 -125
40 0 40 0 1 -122 c1 -68 1 -133 2 -145 0 -13 4 -23 8 -23 5 0 9 5 9 12 0 6 2
9 5 6 10 -9 -7 -38 -18 -31 -5 3 -7 2 -4 -4 10 -15 50 -10 55 7 5 13 3 13 -14
0 -17 -14 -18 -14 -6 2 8 9 10 23 6 30 -4 7 -4 10 1 6 4 -4 14 0 22 10 13 15
13 15 4 -5 -13 -26 -14 -36 -3 -29 5 3 8 -3 8 -12 0 -9 1 -72 2 -139 l2 -123
40 0 40 0 -4 -107 c-5 -133 -4 -125 -16 -118 -6 4 -7 12 -3 18 12 20 12 37 0
37 -7 0 -5 5 3 10 8 5 10 10 5 10 -6 0 -16 -5 -22 -11 -7 -7 -12 -6 -17 6 -3
9 -2 13 3 10 5 -3 12 -1 16 5 4 6 12 7 18 4 8 -5 8 -3 0 7 -15 16 -17 43 -3
34 6 -3 10 -2 10 3 0 5 -15 8 -33 8 l-32 -1 0 -75 0 -75 74 -2 c41 -2 76 -4
77 -6 2 -1 4 -26 5 -55 2 -38 6 -51 15 -48 8 3 16 1 19 -4 7 -12 -5 -40 -18
-40 -7 0 -7 4 1 12 17 17 15 33 -2 18 -12 -9 -15 -62 -16 -306 l0 -294 40 0
40 0 0 -165 0 -165 40 0 40 0 0 -160 0 -160 40 0 40 0 0 -160 0 -160 40 0 40
0 0 -280 0 -280 40 0 40 0 0 -160 0 -160 -40 0 -40 0 0 -120 0 -120 -40 0 -40
0 0 -125 0 -125 -40 0 -40 0 0 -120 0 -120 -40 0 -40 0 0 -120 0 -120 40 0 40
0 0 -80 0 -80 40 0 40 0 0 -40 0 -40 40 0 40 0 0 -40 0 -40 40 0 40 0 0 -40 0
-40 360 0 360 0 0 40 0 40 120 0 120 0 0 40 0 40 125 0 125 0 0 40 0 40 80 0
80 0 0 40 0 40 80 0 80 0 0 120 0 120 40 0 40 0 0 120 0 120 40 0 40 0 0 125
0 125 40 0 40 0 0 40 0 40 40 0 40 0 0 40 0 40 40 0 40 0 0 40 0 40 40 0 40 0
0 40 0 40 40 0 40 0 0 80 0 80 40 0 40 0 0 40 0 40 40 0 40 0 0 200 0 200 -40
0 -40 0 0 40 0 40 40 0 40 0 0 40 0 40 40 0 40 0 0 40 0 40 40 0 40 0 0 40 0
40 120 0 120 0 0 325 0 325 -40 0 -40 0 0 200 0 200 -40 0 -40 0 0 40 0 40
-80 0 -80 0 0 120 0 120 40 0 40 0 0 80 0 80 40 0 40 0 0 240 0 240 -40 0 -40
0 0 40 0 40 -80 0 -80 0 0 40 0 40 -80 0 -80 0 0 40 0 40 -80 0 -80 0 0 40 0
40 -40 0 -40 0 0 40 0 40 -160 0 -160 0 0 -40 0 -40 -40 0 -40 0 0 -40 0 -40
-40 0 -40 0 0 -40 0 -40 -80 0 -80 0 0 -40 0 -40 -45 0 -45 0 0 -40 0 -40 -40
0 -40 0 0 -40 0 -40 -80 0 -80 0 0 165 c0 152 -1 164 -17 159 -15 -5 -16 -4
-3 5 8 5 16 23 17 38 2 21 0 24 -7 13 -6 -9 -10 -10 -10 -3 0 6 5 15 10 18 6
4 10 218 10 611 l0 604 -40 0 -40 0 -1 48 c-1 26 0 55 1 66 1 13 -2 16 -12 10
-10 -6 -11 -5 -1 7 10 12 18 279 16 556 0 31 1 32 36 30 36 -2 36 -2 39 41 l3
42 -40 0 -41 0 0 80 0 80 -40 0 -40 0 0 85 0 85 -240 0 -240 0 0 -45z m0
-1405 l0 -320 -40 0 -40 0 0 -165 0 -165 -79 0 -80 0 -3 108 c-2 59 -2 133 0
165 l3 57 39 0 40 0 0 200 0 200 40 0 40 0 0 120 0 120 40 0 40 0 0 -320z
m589 -910 c-13 -10 -19 -19 -13 -20 5 0 14 4 20 10 6 6 14 2 23 -13 11 -18 11
-20 0 -9 -18 17 -27 15 -25 -4 0 -9 -6 -18 -15 -19 -11 -2 -15 4 -15 20 2 25
23 55 38 55 6 0 0 -9 -13 -20z m921 10 c0 -5 -2 -10 -4 -10 -3 0 -8 5 -11 10
-3 6 -1 10 4 10 6 0 11 -4 11 -10z m-2360 -160 c0 -5 -5 -10 -11 -10 -5 0 -7
5 -4 10 3 6 8 10 11 10 2 0 4 -4 4 -10z m83 -427 c-5 -12 -3 -14 7 -8 8 5 11
4 6 -3 -4 -6 -13 -9 -20 -6 -12 4 -13 15 -7 42 1 2 5 1 11 -3 5 -3 6 -13 3
-22z m21 -70 c3 -7 1 -15 -5 -18 -5 -4 -7 -10 -4 -15 3 -4 -2 -7 -10 -6 -21 3
-31 16 -12 16 9 0 19 5 23 11 4 8 -1 9 -17 5 -13 -3 -18 -3 -10 0 11 5 11 8 0
15 -10 6 -7 8 8 6 13 0 25 -7 27 -14z m2196 -143 c0 -65 3 -90 13 -91 10 0 10
-2 0 -6 -7 -2 -13 -16 -13 -29 0 -21 -4 -24 -40 -24 l-40 0 0 -40 0 -40 -40 0
-40 0 0 -40 0 -40 -40 0 -40 0 0 -40 0 -40 -40 0 -40 0 0 120 0 120 40 0 40 0
0 40 0 40 40 0 40 0 0 40 0 40 40 0 40 0 0 40 0 40 40 0 40 0 0 -90z m-2040
-1 c0 -8 4 -8 13 0 10 8 14 7 14 -4 0 -8 -4 -12 -9 -9 -4 3 -8 1 -8 -5 0 -5 5
-13 11 -16 14 -9 6 -28 -14 -31 -13 -2 -15 2 -7 15 6 13 4 24 -6 39 -9 13 -11
22 -5 22 6 0 11 -5 11 -11z m2095 -79 c4 -6 11 -7 17 -4 7 4 8 2 4 -5 -6 -9
-12 -9 -24 1 -10 7 -19 14 -21 15 -2 2 1 3 7 3 6 0 14 -5 17 -10z m386 -324
c14 8 11 -2 -4 -14 -10 -8 -13 -6 -14 11 0 12 1 16 4 9 3 -6 9 -10 14 -6z m34
-6 c3 -5 1 -10 -4 -10 -6 0 -11 5 -11 10 0 6 2 10 4 10 3 0 8 -4 11 -10z m-57
-45 c-3 -3 -9 2 -12 12 -6 14 -5 15 5 6 7 -7 10 -15 7 -18z m-543 -2004 c3 -5
2 -12 -3 -15 -5 -3 -9 1 -9 9 0 17 3 19 12 6z"/>
<path d="M3435 4600 c3 -5 8 -10 11 -10 2 0 4 5 4 10 0 6 -5 10 -11 10 -5 0
-7 -4 -4 -10z"/>
<path d="M3438 6574 c6 -3 12 -10 12 -15 0 -6 -6 -7 -12 -3 -10 5 -10 4 -1 -6
8 -9 9 -18 3 -25 -6 -7 1 -11 23 -11 29 0 33 4 34 29 0 18 -2 25 -7 17 -6 -10
-8 -10 -12 0 -2 7 -15 14 -29 16 -13 1 -18 0 -11 -2z m44 -43 c-5 -14 -29 -7
-27 8 2 9 4 21 5 26 0 6 6 1 12 -10 7 -11 11 -22 10 -24z"/>
</g>
</svg>
